# xmcd CD database file
#
# Track frame offsets:
#	150
#	32407
#	73157
#	105360
#	127585
#	164372
#	191192
#	217047
#
# Disc length: 3563 seconds
#
# Revision: 3
# Processed by: cddbd v1.5.1PL2 Copyright (c) Steve Scherf et al.
# Submitted via: CDex 1.51
#
DISCID=690de908
DTITLE=Ulmer, James 'Blood' - LIVE at the Bayrischer Hof
DYEAR=1994
DGENRE=Blues
TTITLE0=Burning up
TTITLE1=Church
TTITLE2=Crying
TTITLE3=Let me take you home
TTITLE4=Boss lady
TTITLE5=Street bride
TTITLE6=Timeless
TTITLE7=Make it right
EXTD=YEAR: 1994
EXTT0=
EXTT1=
EXTT2=
EXTT3=
EXTT4=
EXTT5=
EXTT6=
EXTT7=
PLAYORDER=
